<svg id="Layer_1" data-name="Layer 1" xmlns="http://www.w3.org/2000/svg" xmlns:xlink="http://www.w3.org/1999/xlink" viewBox="0 0 1080 1080"><defs><style>.cls-1{stroke-miterlimit:10;fill:url(#linear-gradient);stroke:url(#linear-gradient-2);}.cls-2{fill:#fff;}</style><linearGradient id="linear-gradient" x1="67.67" y1="885.27" x2="939.84" y2="247.72" gradientUnits="userSpaceOnUse"><stop offset="0" stop-color="#d23ffa"/><stop offset="0.48" stop-color="#9177f2"/><stop offset="1" stop-color="#4cb2ea"/></linearGradient><linearGradient id="linear-gradient-2" x1="-0.5" y1="540" x2="1080.5" y2="540" gradientUnits="userSpaceOnUse"><stop offset="0" stop-color="#9e59a2"/><stop offset="0.34" stop-color="#8d6aae"/><stop offset="0.54" stop-color="#8177b6"/><stop offset="1" stop-color="#52afe2"/></linearGradient></defs><rect class="cls-1" width="1080" height="1080" rx="179.74"/><path class="cls-2" d="M720.58,318.92a58.28,58.28,0,0,0-6.84-27.37c-8.58-16.92-22.17-29-37.85-39-21.4-13.64-45-22.18-69.27-29a470,470,0,0,0-83.54-15.17,655.07,655.07,0,0,0-79.6-2.81,559.3,559.3,0,0,0-89.94,9.92c-28.32,5.48-56,13.16-82.2,25.5-19.15,9-36.42,20.61-50.28,36.9-7.32,8.6-11.32,18.85-15.27,29.16-.63,3.88-.12,7.79-.29,11.69,0,4.56,0,9.11,0,13.67,0,4.12,0,8.24,0,12.35,0,4.57,0,9.13,0,13.69,0,5,0,10,0,15,0,5.23,0,10.47,0,15.7,0,4.35,0,8.7,0,13.05,0,4.79,0,9.59,0,14.38,0,5.68,0,11.37,0,17.05,0,4.79,0,9.58,0,14.38,0,4.35,0,8.7,0,13,0,4.81,0,9.61,0,14.42q0,10.59,0,21.18,0,14.66,0,29.31c0,7.36.06,14.72,0,22.08,0,3.14.44,6.31-.33,9.43v4.79c.78,4.37.15,8.78.35,13.16,0,4.08,0,8.16,0,12.24,0,4.55,0,9.1,0,13.65,0,5.61,0,11.21,0,16.82,0,1.89,0,3.77,0,5.66,0,1.65,0,3.3,0,4.95,0,2.05,0,4.11,0,6.17,0,2.7,0,5.39,0,8.09,0,2.27,0,4.53,0,6.8,0,2,0,4.08,0,6.12.1,1.4-.22,2.82.23,4.21.17,5.92.35,11.82,1.84,17.62,4.73,18.38,15.91,32.3,30.43,43.79,22.51,17.83,48.57,28.55,75.84,36.27A517.69,517.69,0,0,0,460,777.41c2.56,0,3.19-.62,3.17-3.18q-.19-24.79,0-49.61c0-3-1-3.48-3.65-3.52-17.55-.31-35.09-.93-52.58-2.67-32.85-3.28-65.11-9.25-96.21-20.64-14.8-5.42-28.94-12.1-41.25-22.22a20.14,20.14,0,0,1-7.62-15c-.71-10.71-.5-21.43-.21-32.14.15-5.76.32-5.87,5.43-3.36,36.19,17.73,74.85,26.69,114.44,32.29,26,3.67,52.18,5,78.37,6.15,2.44.11,3.3-.24,3.28-3q-.23-25.32,0-50.63c0-2.88-1-3.27-3.44-3.23-12.21.2-24.39-.25-36.57-1.13-35-2.53-69.34-8.58-102.74-19.45-18.12-5.89-35.62-13.15-50.82-25.07a17.43,17.43,0,0,1-7.06-12.71c-1-11.49-.93-23-.95-34.52,0-5.44.19-5.56,5.18-3.25A368.23,368.23,0,0,0,345,536.35c37.82,8.08,76.2,10.83,114.72,12.4,2.43.1,2.74-.84,2.85-2.88.93-16.87.36-33.75.62-50.62,0-2.43-.93-2.69-2.95-2.77-29.4-1.09-58.71-3.1-87.76-8.09-27.12-4.66-53.6-11.43-78.54-23.35-9.67-4.62-19.05-9.79-26.63-17.61-2.82-2.91-5-6.19-5.34-10.41a265.34,265.34,0,0,1,.06-35.89c.16-2.58,1.07-3.12,3.41-2,5,2.42,10,4.81,15.17,7,22.41,9.49,45.85,15.51,69.63,20.29a532.31,532.31,0,0,0,76.17,9.95c23.37,1.25,46.74.6,70.11-.09,27.3-.81,54.22-4.58,81-10,28.42-5.74,55.93-14.25,82.23-26.56,4.18-2,4.31-1.83,4.56,2.92.57,10.37.65,20.75.41,31.12-.07,3,.87,3.48,3.61,3.46q24.63-.19,49.26,0c3,0,4-.55,3.91-3.81C721,392.59,720.43,355.75,720.58,318.92Zm-59,6.88c-4.62,6.13-10.88,10.32-17.36,14.17-20,11.9-41.91,19.17-64.44,24.52C539.46,374.09,498.4,377,470,376.89c-44.59-.38-76.05-2.43-107.08-8.89-25.56-5.32-50.6-12.26-74.05-24.05a94.08,94.08,0,0,1-18.09-11.54,30.77,30.77,0,0,1-6.43-7c-3.31-5.16-3.15-8.71,1-13.28,7.27-8.07,16.19-13.92,25.87-18.67,21.81-10.7,45-17.14,68.67-21.91,41.89-8.44,84.25-11.11,126.86-9.42,43.87,1.75,87,8,128.53,23.11,12.75,4.66,25,10.39,36,18.42a45.54,45.54,0,0,1,10.41,9.81C665.14,318.22,665.17,321.08,661.63,325.8Z"/><path class="cls-2" d="M873.26,833.26q-44.13-43.92-88.08-88c-1.66-1.65-2-2.8-.81-4.89,2.27-4.06,4.15-8.34,6.23-12.5,10.1-20.15,15.92-41.35,15.62-75.2-.48-27.28-13.42-60.9-40.45-88.39-34.95-35.52-78-49.44-126.63-41.16C569.76,534.94,510.38,598.83,523,687.22c4.44,31,19.58,57.55,42.35,79.31A139.34,139.34,0,0,0,646.94,805c20.94,2.51,41.62.94,61.65-6.17,10.95-3.89,21.27-9.22,31.6-14.46,2.53-1.29,3.83-.91,5.75,1q43.81,44,87.75,87.83c1.88,1.88,2.84,2,4.73,0q17.26-17.55,34.83-34.82C875.36,836.35,875.4,835.39,873.26,833.26Zm-209.11-83.4c-47.71-.09-86.81-38.85-86.79-86.28,0-46.62,38.66-85.47,84.29-86.29,48.78-.87,88.78,38.66,88.33,86.19C750.66,710.15,711.07,749.94,664.15,749.86Z"/></svg>